<?xml version="1.0" encoding="UTF-8"?><svg xmlns="http://www.w3.org/2000/svg" xmlns:xlink="http://www.w3.org/1999/xlink" fill-opacity="1" color-rendering="auto" color-interpolation="auto" text-rendering="auto" stroke="black" stroke-linecap="square" width="5763" stroke-miterlimit="10" shape-rendering="auto" stroke-opacity="1" fill="black" stroke-dasharray="none" font-weight="normal" stroke-width="1" height="1151" font-family="'Dialog'" font-style="normal" stroke-linejoin="miter" font-size="12px" stroke-dashoffset="0" image-rendering="auto">
  <!--Generated by ySVG 2.6-->
  <defs id="genericDefs"/>
  <g>
    <defs id="defs1">
      <clipPath clipPathUnits="userSpaceOnUse" id="clipPath1">
        <path d="M0 0 L5763 0 L5763 1151 L0 1151 L0 0 Z"/>
      </clipPath>
      <clipPath clipPathUnits="userSpaceOnUse" id="clipPath2">
        <path d="M-15 -1156 L5748 -1156 L5748 -5 L-15 -5 L-15 -1156 Z"/>
      </clipPath>
    </defs>
    <g fill="white" text-rendering="geometricPrecision" shape-rendering="geometricPrecision" transform="translate(15,1156)" stroke="white">
      <rect x="-15" width="5763" height="1151" y="-1156" clip-path="url(#clipPath2)" stroke="none"/>
    </g>
    <g text-rendering="geometricPrecision" stroke-miterlimit="1.45" shape-rendering="geometricPrecision" font-family="'Fira Sans Condensed Book'" transform="matrix(1,0,0,1,15,1156)" stroke-linecap="butt">
      <text x="5708.606" xml:space="preserve" y="-1110.98" clip-path="url(#clipPath2)" stroke="none">sink</text>
      <ellipse rx="14.5761" fill="none" ry="15" clip-path="url(#clipPath2)" cx="5718.1819" cy="-1114.5"/>
      <text x="297.4495" xml:space="preserve" y="-1076.98" clip-path="url(#clipPath2)" stroke="none">p_4</text>
      <ellipse rx="13.5081" fill="none" ry="15" clip-path="url(#clipPath2)" cx="305.9575" cy="-1080.5"/>
      <text x="5190.2109" xml:space="preserve" y="-996.48" clip-path="url(#clipPath2)" stroke="none">p_19</text>
      <ellipse rx="15.7401" fill="none" ry="15" clip-path="url(#clipPath2)" cx="5200.951" cy="-1000"/>
      <text x="2543.3589" xml:space="preserve" y="-1018.48" clip-path="url(#clipPath2)" stroke="none">p_22</text>
      <ellipse rx="15.7821" fill="none" ry="15" clip-path="url(#clipPath2)" cx="2554.1409" cy="-1022"/>
      <text x="5" xml:space="preserve" y="-1076.98" clip-path="url(#clipPath2)" stroke="none">source</text>
      <ellipse rx="20.7621" fill="none" ry="15" clip-path="url(#clipPath2)" cx="20.7621" cy="-1080.5"/>
      <text x="1169.7864" xml:space="preserve" y="-1076.98" clip-path="url(#clipPath2)" stroke="none">p_7</text>
      <ellipse rx="13.0581" fill="none" ry="15" clip-path="url(#clipPath2)" cx="1177.8444" cy="-1080.5"/>
      <text x="3330.0188" xml:space="preserve" y="-567.48" clip-path="url(#clipPath2)" stroke="none">p_29</text>
      <ellipse rx="16.0281" fill="none" ry="15" clip-path="url(#clipPath2)" cx="3341.0469" cy="-571"/>
      <text x="3768.6541" xml:space="preserve" y="-523.3133" clip-path="url(#clipPath2)" stroke="none">p_30</text>
      <ellipse rx="16.3221" fill="none" ry="15" clip-path="url(#clipPath2)" cx="3779.9761" cy="-526.8333"/>
      <text x="5444.2876" xml:space="preserve" y="-1003.98" clip-path="url(#clipPath2)" stroke="none">p_13</text>
      <ellipse rx="15.5541" fill="none" ry="15" clip-path="url(#clipPath2)" cx="5454.8415" cy="-1007.5"/>
      <text x="1167.2543" xml:space="preserve" y="-1026.48" clip-path="url(#clipPath2)" stroke="none">p_15</text>
      <ellipse rx="15.5901" fill="none" ry="15" clip-path="url(#clipPath2)" cx="1177.8444" cy="-1030"/>
      <text x="1482.9639" xml:space="preserve" y="-1018.98" clip-path="url(#clipPath2)" stroke="none">p_16</text>
      <ellipse rx="15.8241" fill="none" ry="15" clip-path="url(#clipPath2)" cx="1493.7879" cy="-1022.5"/>
      <text x="4940.2607" xml:space="preserve" y="-988.98" clip-path="url(#clipPath2)" stroke="none">p_21</text>
      <ellipse rx="15.4941" fill="none" ry="15" clip-path="url(#clipPath2)" cx="4950.7546" cy="-992.5"/>
      <text x="2737.1553" xml:space="preserve" y="-1010.98" clip-path="url(#clipPath2)" stroke="none">p_23</text>
      <ellipse rx="15.8421" fill="none" ry="15" clip-path="url(#clipPath2)" cx="2747.9974" cy="-1014.5"/>
      <text x="2917.9758" xml:space="preserve" y="-1003.48" clip-path="url(#clipPath2)" stroke="none">p_26</text>
      <ellipse rx="16.1121" fill="none" ry="15" clip-path="url(#clipPath2)" cx="2929.0879" cy="-1007"/>
      <text x="4168.3145" xml:space="preserve" y="-950.98" clip-path="url(#clipPath2)" stroke="none">p_32</text>
      <ellipse rx="15.8421" fill="none" ry="15" clip-path="url(#clipPath2)" cx="4179.1563" cy="-954.5"/>
      <text x="1870.4968" xml:space="preserve" y="-973.48" clip-path="url(#clipPath2)" stroke="none">p_18</text>
      <ellipse rx="15.8361" fill="none" ry="15" clip-path="url(#clipPath2)" cx="1881.3329" cy="-977"/>
      <text x="3973.7378" xml:space="preserve" y="-958.48" clip-path="url(#clipPath2)" stroke="none">p_25</text>
      <ellipse rx="15.8781" fill="none" ry="15" clip-path="url(#clipPath2)" cx="3984.6158" cy="-962"/>
      <text x="866.3714" xml:space="preserve" y="-1076.98" clip-path="url(#clipPath2)" stroke="none">p_6</text>
      <ellipse rx="13.5981" fill="none" ry="15" clip-path="url(#clipPath2)" cx="874.9695" cy="-1080.5"/>
      <text x="866.3594" xml:space="preserve" y="-1121.98" clip-path="url(#clipPath2)" stroke="none">p_8</text>
      <ellipse rx="13.6101" fill="none" ry="15" clip-path="url(#clipPath2)" cx="874.9695" cy="-1125.5"/>
      <text x="3147.9443" xml:space="preserve" y="-559.98" clip-path="url(#clipPath2)" stroke="none">p_28</text>
      <ellipse rx="16.1241" fill="none" ry="15" clip-path="url(#clipPath2)" cx="3159.0685" cy="-563.5"/>
      <text x="1169.3303" xml:space="preserve" y="-1121.98" clip-path="url(#clipPath2)" stroke="none">p_9</text>
      <ellipse rx="13.5141" fill="none" ry="15" clip-path="url(#clipPath2)" cx="1177.8444" cy="-1125.5"/>
      <text x="1711.8842" xml:space="preserve" y="-973.48" clip-path="url(#clipPath2)" stroke="none">p_14</text>
      <ellipse rx="15.7341" fill="none" ry="15" clip-path="url(#clipPath2)" cx="1722.6183" cy="-977"/>
      <text x="2122.3933" xml:space="preserve" y="-980.98" clip-path="url(#clipPath2)" stroke="none">p_20</text>
      <ellipse rx="16.2621" fill="none" ry="15" clip-path="url(#clipPath2)" cx="2133.6555" cy="-984.5"/>
      <text x="4734.8804" xml:space="preserve" y="-988.98" clip-path="url(#clipPath2)" stroke="none">p_24</text>
      <ellipse rx="16.0221" fill="none" ry="15" clip-path="url(#clipPath2)" cx="4745.9022" cy="-992.5"/>
      <text x="673.3469" xml:space="preserve" y="-1076.98" clip-path="url(#clipPath2)" stroke="none">p_5</text>
      <ellipse rx="13.3641" fill="none" ry="15" clip-path="url(#clipPath2)" cx="681.711" cy="-1080.5"/>
      <text x="864.4754" xml:space="preserve" y="-965.98" clip-path="url(#clipPath2)" stroke="none">p_12</text>
      <ellipse rx="15.4941" fill="none" ry="15" clip-path="url(#clipPath2)" cx="874.9695" cy="-969.5"/>
      <text x="3769.4041" xml:space="preserve" y="-972.48" clip-path="url(#clipPath2)" stroke="none">p_27</text>
      <ellipse rx="15.5721" fill="none" ry="15" clip-path="url(#clipPath2)" cx="3779.9761" cy="-976"/>
      <text x="4504.6079" xml:space="preserve" y="-913.48" clip-path="url(#clipPath2)" stroke="none">p_33</text>
      <ellipse rx="15.9021" fill="none" ry="15" clip-path="url(#clipPath2)" cx="4515.5098" cy="-917"/>
      <text x="5624.1455" xml:space="preserve" y="-1110.98" clip-path="url(#clipPath2)" stroke="none">tauJoin_4</text>
      <rect fill="none" x="5619.1455" width="54.4603" height="30" y="-1129.5" clip-path="url(#clipPath2)"/>
      <text x="2651.4229" xml:space="preserve" y="-1065.48" clip-path="url(#clipPath2)" stroke="none">skip_16</text>
      <rect fill="none" x="2646.4229" width="44.7402" height="30" y="-1084" clip-path="url(#clipPath2)"/>
      <text x="2640.4309" xml:space="preserve" y="-1010.98" clip-path="url(#clipPath2)" stroke="none">init_loop_17</text>
      <rect fill="none" x="2635.4309" width="66.7244" height="30" y="-1029.5" clip-path="url(#clipPath2)"/>
      <text x="3468.26" xml:space="preserve" y="-927.48" clip-path="url(#clipPath2)" stroke="none">4c46e6af-30f2-40c8-b804-89a4ba388773</text>
      <rect fill="none" x="3463.26" width="199.1213" height="30" y="-946" clip-path="url(#clipPath2)"/>
      <text x="5115.0986" xml:space="preserve" y="-100.48" clip-path="url(#clipPath2)" stroke="none">skip_34</text>
      <rect fill="none" x="5110.0987" width="45.2563" height="30" y="-119" clip-path="url(#clipPath2)"/>
      <text x="730.0751" xml:space="preserve" y="-1076.98" clip-path="url(#clipPath2)" stroke="none">tauSplit_3</text>
      <rect fill="none" x="725.075" width="57.4004" height="30" y="-1095.5" clip-path="url(#clipPath2)"/>
      <text x="400.9656" xml:space="preserve" y="-1099.48" clip-path="url(#clipPath2)" stroke="none">3f678da3-e70c-4ba1-a95c-76a7a89116b3</text>
      <rect fill="none" x="395.9656" width="195.8813" height="30" y="-1118" clip-path="url(#clipPath2)"/>
      <text x="2820.3394" xml:space="preserve" y="-1003.48" clip-path="url(#clipPath2)" stroke="none">init_loop_19</text>
      <rect fill="none" x="2815.3394" width="67.6364" height="30" y="-1022" clip-path="url(#clipPath2)"/>
      <text x="3470.5459" xml:space="preserve" y="-702.48" clip-path="url(#clipPath2)" stroke="none">ab7cee53-1729-40fd-ad21-5345b53d1dcf</text>
      <rect fill="none" x="3465.546" width="194.5493" height="30" y="-721" clip-path="url(#clipPath2)"/>
      <text x="3472.0339" xml:space="preserve" y="-297.48" clip-path="url(#clipPath2)" stroke="none">3aa1bfe3-6e2a-442e-b91e-cf610f93f13d</text>
      <rect fill="none" x="3467.034" width="191.5733" height="30" y="-316" clip-path="url(#clipPath2)"/>
      <text x="4069.9099" xml:space="preserve" y="-950.98" clip-path="url(#clipPath2)" stroke="none">init_loop_28</text>
      <rect fill="none" x="4064.9098" width="68.4044" height="30" y="-969.5" clip-path="url(#clipPath2)"/>
      <text x="4843.9243" xml:space="preserve" y="-1034.48" clip-path="url(#clipPath2)" stroke="none">skip_32</text>
      <rect fill="none" x="4838.9243" width="44.7763" height="30" y="-1053" clip-path="url(#clipPath2)"/>
      <text x="4843.8643" xml:space="preserve" y="-981.48" clip-path="url(#clipPath2)" stroke="none">skip_33</text>
      <rect fill="none" x="4838.8643" width="44.8963" height="30" y="-1000" clip-path="url(#clipPath2)"/>
      <text x="5369.3911" xml:space="preserve" y="-69.48" clip-path="url(#clipPath2)" stroke="none">skip_36</text>
      <rect fill="none" x="5364.3911" width="45.4363" height="30" y="-88" clip-path="url(#clipPath2)"/>
      <text x="1591.1119" xml:space="preserve" y="-1056.98" clip-path="url(#clipPath2)" stroke="none">skip_10</text>
      <rect fill="none" x="1586.112" width="45.0403" height="30" y="-1075.5" clip-path="url(#clipPath2)"/>
      <text x="1773.3524" xml:space="preserve" y="-973.48" clip-path="url(#clipPath2)" stroke="none">init_loop_12</text>
      <rect fill="none" x="1768.3524" width="67.1444" height="30" y="-992" clip-path="url(#clipPath2)"/>
      <text x="2270.8274" xml:space="preserve" y="-1025.98" clip-path="url(#clipPath2)" stroke="none">4cb64306-cbaa-4b16-9b2e-505211e83545</text>
      <rect fill="none" x="2265.8275" width="200.6213" height="30" y="-1044.5" clip-path="url(#clipPath2)"/>
      <text x="3467.8459" xml:space="preserve" y="-162.48" clip-path="url(#clipPath2)" stroke="none">3781ae49-1be6-47bd-b85f-8adf04edb0bf</text>
      <rect fill="none" x="3462.846" width="199.9493" height="30" y="-181" clip-path="url(#clipPath2)"/>
      <text x="3469.376" xml:space="preserve" y="-657.48" clip-path="url(#clipPath2)" stroke="none">8e2304c2-41f7-45c9-82b0-e09142033902</text>
      <rect fill="none" x="3464.376" width="196.8893" height="30" y="-676" clip-path="url(#clipPath2)"/>
      <text x="3898.6555" xml:space="preserve" y="-1003.48" clip-path="url(#clipPath2)" stroke="none">skip_25</text>
      <rect fill="none" x="3893.6555" width="44.8483" height="30" y="-1022" clip-path="url(#clipPath2)"/>
      <text x="5628.6455" xml:space="preserve" y="-31.48" clip-path="url(#clipPath2)" stroke="none">skip_38</text>
      <rect fill="none" x="5623.6455" width="45.4603" height="30" y="-50" clip-path="url(#clipPath2)"/>
      <text x="76.5242" xml:space="preserve" y="-1076.98" clip-path="url(#clipPath2)" stroke="none">01ec2402-7f83-4fb4-82fe-205ec590ff40</text>
      <rect fill="none" x="71.5242" width="190.9252" height="30" y="-1095.5" clip-path="url(#clipPath2)"/>
      <text x="1250.4344" xml:space="preserve" y="-1018.98" clip-path="url(#clipPath2)" stroke="none">5eaeb537-5860-4bf9-aafb-8e6090044a99</text>
      <rect fill="none" x="1245.4345" width="202.5293" height="30" y="-1037.5" clip-path="url(#clipPath2)"/>
      <text x="1591.88" xml:space="preserve" y="-1011.48" clip-path="url(#clipPath2)" stroke="none">skip_11</text>
      <rect fill="none" x="1586.88" width="43.5042" height="30" y="-1030" clip-path="url(#clipPath2)"/>
      <text x="3050.8" xml:space="preserve" y="-559.98" clip-path="url(#clipPath2)" stroke="none">init_loop_21</text>
      <rect fill="none" x="3045.8" width="67.1444" height="30" y="-578.5" clip-path="url(#clipPath2)"/>
      <text x="3468.3679" xml:space="preserve" y="-387.48" clip-path="url(#clipPath2)" stroke="none">3154f4b1-a601-4e7f-b85d-ad6892b50b82</text>
      <rect fill="none" x="3463.368" width="198.9053" height="30" y="-406" clip-path="url(#clipPath2)"/>
      <text x="3469.616" xml:space="preserve" y="-882.48" clip-path="url(#clipPath2)" stroke="none">10503ebc-d262-4b74-a9fc-85531a45181d</text>
      <rect fill="none" x="3464.616" width="196.4093" height="30" y="-901" clip-path="url(#clipPath2)"/>
      <text x="3467.7681" xml:space="preserve" y="-612.48" clip-path="url(#clipPath2)" stroke="none">639af30d-c540-48aa-9340-b665fcb74308</text>
      <rect fill="none" x="3462.768" width="200.1053" height="30" y="-631" clip-path="url(#clipPath2)"/>
      <text x="4276.9985" xml:space="preserve" y="-913.48" clip-path="url(#clipPath2)" stroke="none">671885a5-e368-4282-b0c0-a5f79d9a813c</text>
      <rect fill="none" x="4271.9984" width="197.6093" height="30" y="-932" clip-path="url(#clipPath2)"/>
      <text x="479.0922" xml:space="preserve" y="-1054.48" clip-path="url(#clipPath2)" stroke="none">skip_2</text>
      <rect fill="none" x="474.0922" width="39.6282" height="30" y="-1073" clip-path="url(#clipPath2)"/>
      <text x="2024.7689" xml:space="preserve" y="-980.98" clip-path="url(#clipPath2)" stroke="none">init_loop_14</text>
      <rect fill="none" x="2019.7689" width="67.6244" height="30" y="-999.5" clip-path="url(#clipPath2)"/>
      <text x="2275.4175" xml:space="preserve" y="-980.98" clip-path="url(#clipPath2)" stroke="none">ee75709f-a291-4c9a-af71-2edf76a8dc53</text>
      <rect fill="none" x="2270.4175" width="191.4413" height="30" y="-999.5" clip-path="url(#clipPath2)"/>
      <text x="3471.188" xml:space="preserve" y="-792.48" clip-path="url(#clipPath2)" stroke="none">223fd316-98cb-4a2f-afde-832cdddfa710</text>
      <rect fill="none" x="3466.188" width="193.2653" height="30" y="-811" clip-path="url(#clipPath2)"/>
      <text x="3468.6621" xml:space="preserve" y="-567.48" clip-path="url(#clipPath2)" stroke="none">6ec858f3-8283-4a79-87c6-c1698db10dcb</text>
      <rect fill="none" x="3463.662" width="198.3173" height="30" y="-586" clip-path="url(#clipPath2)"/>
      <text x="3468.2239" xml:space="preserve" y="-342.48" clip-path="url(#clipPath2)" stroke="none">106ab886-474c-4a06-b21b-ea2baff4a356</text>
      <rect fill="none" x="3463.224" width="199.1933" height="30" y="-361" clip-path="url(#clipPath2)"/>
      <text x="3898.4216" xml:space="preserve" y="-958.48" clip-path="url(#clipPath2)" stroke="none">skip_26</text>
      <rect fill="none" x="3893.4215" width="45.3163" height="30" y="-977" clip-path="url(#clipPath2)"/>
      <text x="941.235" xml:space="preserve" y="-1121.98" clip-path="url(#clipPath2)" stroke="none">23297577-5492-42e4-a6a3-8bf6bdd32905</text>
      <rect fill="none" x="936.235" width="198.0653" height="30" y="-1140.5" clip-path="url(#clipPath2)"/>
      <text x="3897.7314" xml:space="preserve" y="-131.48" clip-path="url(#clipPath2)" stroke="none">loop_22</text>
      <rect fill="none" x="3892.7315" width="46.6963" height="30" y="-150" clip-path="url(#clipPath2)"/>
      <text x="3470.708" xml:space="preserve" y="-522.48" clip-path="url(#clipPath2)" stroke="none">f39af72c-6a44-42f6-a850-2925be1482b4</text>
      <rect fill="none" x="3465.708" width="194.2253" height="30" y="-541" clip-path="url(#clipPath2)"/>
      <text x="3467.072" xml:space="preserve" y="-252.48" clip-path="url(#clipPath2)" stroke="none">099c96c5-0cc0-4559-9d28-d16686c0f8bd</text>
      <rect fill="none" x="3462.072" width="201.4973" height="30" y="-271" clip-path="url(#clipPath2)"/>
      <text x="3471.6021" xml:space="preserve" y="-837.48" clip-path="url(#clipPath2)" stroke="none">4c1ad2e7-7e20-4511-b02c-28ac87cf7dc2</text>
      <rect fill="none" x="3466.602" width="192.4373" height="30" y="-856" clip-path="url(#clipPath2)"/>
      <text x="4613.4121" xml:space="preserve" y="-950.98" clip-path="url(#clipPath2)" stroke="none">skip_30</text>
      <rect fill="none" x="4608.4119" width="45.7363" height="30" y="-969.5" clip-path="url(#clipPath2)"/>
      <text x="5115.2427" xml:space="preserve" y="-996.48" clip-path="url(#clipPath2)" stroke="none">skip_35</text>
      <rect fill="none" x="5110.2427" width="44.9683" height="30" y="-1015" clip-path="url(#clipPath2)"/>
      <text x="940.749" xml:space="preserve" y="-1076.98" clip-path="url(#clipPath2)" stroke="none">ad4c25ce-d4c5-4f4a-9d87-64ce89350bcc</text>
      <rect fill="none" x="935.749" width="199.0374" height="30" y="-1095.5" clip-path="url(#clipPath2)"/>
      <text x="1020.6636" xml:space="preserve" y="-965.98" clip-path="url(#clipPath2)" stroke="none">skip_7</text>
      <rect fill="none" x="1015.6635" width="39.2082" height="30" y="-984.5" clip-path="url(#clipPath2)"/>
      <text x="1008.5795" xml:space="preserve" y="-1026.48" clip-path="url(#clipPath2)" stroke="none">init_loop_8</text>
      <rect fill="none" x="1003.5795" width="63.3764" height="30" y="-1045" clip-path="url(#clipPath2)"/>
      <text x="3471.116" xml:space="preserve" y="-432.48" clip-path="url(#clipPath2)" stroke="none">5cff704e-39c8-4b39-84bb-976f2a277965</text>
      <rect fill="none" x="3466.116" width="193.4093" height="30" y="-451" clip-path="url(#clipPath2)"/>
      <text x="3466.1541" xml:space="preserve" y="-477.48" clip-path="url(#clipPath2)" stroke="none">405e8c8a-57b0-4a1f-b829-65be7be3bdbd</text>
      <rect fill="none" x="3461.154" width="203.3334" height="30" y="-496" clip-path="url(#clipPath2)"/>
      <text x="4081.9939" xml:space="preserve" y="-996.48" clip-path="url(#clipPath2)" stroke="none">skip_27</text>
      <rect fill="none" x="4076.9939" width="44.2363" height="30" y="-1015" clip-path="url(#clipPath2)"/>
      <text x="5369.9312" xml:space="preserve" y="-1003.98" clip-path="url(#clipPath2)" stroke="none">skip_37</text>
      <rect fill="none" x="5364.9311" width="44.3563" height="30" y="-1022.5" clip-path="url(#clipPath2)"/>
      <text x="3255.2427" xml:space="preserve" y="-567.48" clip-path="url(#clipPath2)" stroke="none">skip_23</text>
      <rect fill="none" x="3250.2426" width="44.7763" height="30" y="-586" clip-path="url(#clipPath2)"/>
      <text x="3468.7581" xml:space="preserve" y="-207.48" clip-path="url(#clipPath2)" stroke="none">7cd4a49a-5e2c-406c-b026-af8bde42affd</text>
      <rect fill="none" x="3463.758" width="198.1253" height="30" y="-226" clip-path="url(#clipPath2)"/>
      <text x="3471.896" xml:space="preserve" y="-747.48" clip-path="url(#clipPath2)" stroke="none">8e9a0ea2-207b-4ff8-b2a1-15bfee71e47f</text>
      <rect fill="none" x="3466.896" width="191.8493" height="30" y="-766" clip-path="url(#clipPath2)"/>
      <text x="3545.2524" xml:space="preserve" y="-972.48" clip-path="url(#clipPath2)" stroke="none">skip_24</text>
      <rect fill="none" x="3540.2525" width="45.1363" height="30" y="-991" clip-path="url(#clipPath2)"/>
      <text x="4614.1797" xml:space="preserve" y="-905.98" clip-path="url(#clipPath2)" stroke="none">skip_31</text>
      <rect fill="none" x="4609.1799" width="44.2003" height="30" y="-924.5" clip-path="url(#clipPath2)"/>
      <path fill="none" d="M1191.3585 -1125.5 L5188.7261 -1125.5 L5388.687 -1125.375 L5521.9937 -1125 L5576.8262 -1124.625 L5604.1455 -1124.5 L5611.1162 -1124.5" clip-path="url(#clipPath2)"/>
      <path d="M5619.1162 -1124.5 L5607.1162 -1129.5 L5610.1162 -1124.5 L5607.1162 -1119.5 Z" clip-path="url(#clipPath2)" stroke="none"/>
      <path fill="none" d="M1190.9025 -1080.5 L1200.9025 -1080.5 L1204.8076 -1080.7656 L1218.3389 -1082.8906 L1251.5758 -1090.0625 L1281.3008 -1097.5 L1290.6992 -1099.5586 L1316.623 -1103.2773 L1350.7391 -1106.4648 L1391.4753 -1109.1211 L1461.5525 -1112.1094 L1563.483 -1114.2344 L1614.551 -1114.5 L5611.1147 -1114.5" clip-path="url(#clipPath2)"/>
      <path d="M5619.1147 -1114.5 L5607.1147 -1119.5 L5610.1147 -1114.5 L5607.1147 -1109.5 Z" clip-path="url(#clipPath2)" stroke="none"/>
      <path fill="none" d="M5468.3491 -1015 L5480.3955 -1015 L5482.0278 -1015.1748 L5486.334 -1016.5732 L5495.2271 -1021.293 L5511.1499 -1032.4805 L5531.0532 -1049.2617 L5553.4878 -1070.2383 L5573.3911 -1087.0195 L5589.314 -1098.207 L5598.207 -1102.9268 L5602.5132 -1104.3252 L5604.1455 -1104.5 L5611.1162 -1104.5" clip-path="url(#clipPath2)"/>
      <path d="M5619.1162 -1104.5 L5607.1162 -1109.5 L5610.1162 -1104.5 L5607.1162 -1099.5 Z" clip-path="url(#clipPath2)" stroke="none"/>
      <path fill="none" d="M5673.606 -1114.5 L5695.606 -1114.5" clip-path="url(#clipPath2)"/>
      <path d="M5703.606 -1114.5 L5691.606 -1119.5 L5694.606 -1114.5 L5691.606 -1109.5 Z" clip-path="url(#clipPath2)" stroke="none"/>
      <path fill="none" d="M2567.8291 -1029.5 L2579.9229 -1029.5 L2582.9741 -1029.8086 L2589.6743 -1032.2773 L2596.5659 -1037.2148 L2602.9224 -1044.6211 L2608.4233 -1053.8789 L2614.7798 -1061.2852 L2621.6714 -1066.2227 L2628.3716 -1068.6914 L2631.4229 -1069 L2638.3936 -1069" clip-path="url(#clipPath2)"/>
      <path d="M2646.3936 -1069 L2634.3936 -1074 L2637.3936 -1069 L2634.3936 -1064 Z" clip-path="url(#clipPath2)" stroke="none"/>
      <path fill="none" d="M2691.1631 -1069 L2701.1631 -1069 L2704.2952 -1069.1133 L2711.6414 -1070.0195 L2719.8247 -1071.832 L2728.1187 -1074.5508 L2732.0803 -1076.25 L2734.3381 -1077.1279 L2740.6887 -1078.7139 L2754.053 -1080.668 L2776.9404 -1082.4805 L2802.6924 -1083.3867 L2815.644 -1083.5 L4712.3013 -1083.5 L4728.4414 -1083.3369 L4760.4585 -1082.0322 L4791.2842 -1079.4229 L4819.9116 -1075.5088 L4845.3325 -1070.29 L4861.688 -1065.5198 L4871.0649 -1061.9319 L4879.0737 -1058.0178 L4885.5884 -1053.7776 L4890.4824 -1049.2112 L4893.6309 -1044.3186 L4894.5107 -1041.75 L4897.2612 -1031.9648 L4903.6177 -1016.3086 L4908.7759 -1007.9912 L4912.2305 -1004.0771 L4915.5918 -1001.4678 L4918.769 -1000.1631 L4920.2607 -1000 L4929.3208 -1000" clip-path="url(#clipPath2)"/>
      <path d="M4937.3208 -1000 L4925.3208 -1005 L4928.3208 -1000 L4925.3208 -995 Z" clip-path="url(#clipPath2)" stroke="none"/>
      <path fill="none" d="M2567.8291 -1014.5 L2627.3979 -1014.5" clip-path="url(#clipPath2)"/>
      <path d="M2635.3979 -1014.5 L2623.3979 -1019.5 L2626.3979 -1014.5 L2623.3979 -1009.5 Z" clip-path="url(#clipPath2)" stroke="none"/>
      <path fill="none" d="M2702.1553 -1014.5 L2724.1553 -1014.5" clip-path="url(#clipPath2)"/>
      <path d="M2732.1553 -1014.5 L2720.1553 -1019.5 L2723.1553 -1014.5 L2720.1553 -1009.5 Z" clip-path="url(#clipPath2)" stroke="none"/>
      <path fill="none" d="M3349.7029 -583.6316 L3367.075 -583.6316 L3368.6462 -583.8191 L3371.8877 -585.2473 L3376.7668 -589.6635 L3382.6545 -598.791 L3386.9309 -610.2164 L3388.156 -616.3121 L3427.8279 -899.3257 L3429.0154 -905.2337 L3433.1602 -916.3073 L3438.8667 -925.1539 L3443.5955 -929.4341 L3446.7373 -930.8183 L3448.26 -931 L3455.2307 -931" clip-path="url(#clipPath2)"/>
      <path d="M3463.2307 -931 L3451.2307 -936 L3454.2307 -931 L3451.2307 -926 Z" clip-path="url(#clipPath2)" stroke="none"/>
      <path fill="none" d="M3662.3813 -931 L3672.3813 -931 L3673.8997 -930.8177 L3677.0068 -929.4291 L3681.6287 -925.1353 L3687.114 -916.2605 L3690.9822 -905.1516 L3692.0217 -899.2248 L3729.6177 -571.7977 L3730.6255 -566.0532 L3734.3745 -555.286 L3739.6912 -546.6843 L3744.1709 -542.5226 L3747.1824 -541.1767 L3748.6541 -541 L3766.5974 -541" clip-path="url(#clipPath2)"/>
      <path d="M3774.5974 -541 L3762.5974 -546 L3765.5974 -541 L3762.5974 -536 Z" clip-path="url(#clipPath2)" stroke="none"/>
      <path fill="none" d="M4964.2021 -985 L4976.2485 -985 L4977.7178 -984.8231 L4980.7104 -983.4751 L4985.1313 -979.3071 L4990.3267 -970.6923 L4993.9238 -959.9088 L4994.8506 -954.1556 L5076.4966 -142.3444 L5077.4233 -136.5912 L5081.0205 -125.8077 L5086.2163 -117.193 L5090.6372 -113.0249 L5093.6299 -111.677 L5095.0986 -111.5 L5102.0693 -111.5" clip-path="url(#clipPath2)"/>
      <path d="M5110.0693 -111.5 L5098.0693 -116.5 L5101.0693 -111.5 L5098.0693 -106.5 Z" clip-path="url(#clipPath2)" stroke="none"/>
      <path fill="none" d="M5110.0596 -96.5 L5100.0986 -96.5 L5072.7744 -95.625 L5017.9268 -93 L4996.3022 -92.1797 L4928.0078 -90.8672 L4786.4258 -89.7188 L4684.1992 -89.5 L3477.0583 -89.5 L3448.7368 -89.8112 L3391.9631 -92.2712 L3335.1143 -97.1164 L3278.3081 -104.2685 L3221.6633 -113.6493 L3165.2986 -125.1806 L3109.332 -138.7842 L3053.8821 -154.3819 L2999.0674 -171.8956 L2945.0063 -191.2469 L2891.8171 -212.3578 L2839.6182 -235.1499 L2788.5283 -259.5452 L2738.6655 -285.4654 L2690.1484 -312.8323 L2643.0955 -341.5677 L2597.625 -371.5934 L2553.8555 -402.8312 L2511.9055 -435.2029 L2471.8931 -468.6304 L2433.937 -503.0353 L2398.1555 -538.3395 L2364.6672 -574.4649 L2333.5903 -611.3331 L2305.0435 -648.8661 L2279.145 -686.9855 L2256.0132 -725.6133 L2235.7666 -764.6712 L2222.5464 -794.1998 L2214.696 -813.9792 L2207.6338 -833.8221 L2201.3743 -853.7189 L2195.9321 -873.6595 L2191.3225 -893.6345 L2187.5598 -913.6339 L2184.6592 -933.6479 L2183.5366 -943.6573 L2182.6067 -949.4102 L2179.0037 -960.1931 L2173.8032 -968.8074 L2169.3801 -972.9752 L2166.3867 -974.3231 L2164.9175 -974.5 L2153.7986 -974.5" clip-path="url(#clipPath2)"/>
      <path d="M2145.7986 -974.5 L2157.7986 -969.5 L2154.7986 -974.5 L2157.7986 -979.5 Z" clip-path="url(#clipPath2)" stroke="none"/>
      <path fill="none" d="M695.0751 -1080.5 L717.0458 -1080.5" clip-path="url(#clipPath2)"/>
      <path d="M725.0458 -1080.5 L713.0458 -1085.5 L716.0458 -1080.5 L713.0458 -1075.5 Z" clip-path="url(#clipPath2)" stroke="none"/>
      <path fill="none" d="M782.4754 -1070.5 L792.4754 -1070.5 L793.9677 -1070.3027 L797.1528 -1068.7246 L800.5299 -1065.5684 L804.0081 -1060.834 L809.2161 -1050.7734 L815.6663 -1031.8359 L821.2845 -1008.1641 L827.7347 -989.2266 L832.9427 -979.166 L836.4209 -974.4316 L839.798 -971.2754 L842.9832 -969.6973 L844.4754 -969.5 L851.4754 -969.5" clip-path="url(#clipPath2)"/>
      <path d="M859.4754 -969.5 L847.4754 -974.5 L850.4754 -969.5 L847.4754 -964.5 Z" clip-path="url(#clipPath2)" stroke="none"/>
      <path fill="none" d="M782.4754 -1090.5 L792.4754 -1090.5 L795.5453 -1090.7734 L802.3945 -1092.9609 L809.5841 -1097.3359 L816.3876 -1103.8984 L822.4473 -1112.1016 L829.2507 -1118.6641 L836.4403 -1123.0391 L843.2895 -1125.2266 L846.3594 -1125.5 L853.3594 -1125.5" clip-path="url(#clipPath2)"/>
      <path d="M861.3594 -1125.5 L849.3594 -1130.5 L852.3594 -1125.5 L849.3594 -1120.5 Z" clip-path="url(#clipPath2)" stroke="none"/>
      <path fill="none" d="M782.4754 -1080.5 L853.3714 -1080.5" clip-path="url(#clipPath2)"/>
      <path d="M861.3714 -1080.5 L849.3714 -1085.5 L852.3714 -1080.5 L849.3714 -1075.5 Z" clip-path="url(#clipPath2)" stroke="none"/>
      <path fill="none" d="M317.6844 -1088 L329.4656 -1088 L332.5169 -1088.1172 L339.2171 -1089.0547 L346.1087 -1090.9297 L352.4651 -1093.7422 L357.9661 -1097.2578 L364.3225 -1100.0703 L371.2141 -1101.9453 L377.9143 -1102.8828 L380.9656 -1103 L387.9363 -1103" clip-path="url(#clipPath2)"/>
      <path d="M395.9363 -1103 L383.9363 -1108 L386.9363 -1103 L383.9363 -1098 Z" clip-path="url(#clipPath2)" stroke="none"/>
      <path fill="none" d="M591.8469 -1103 L601.8469 -1103 L604.8982 -1102.8828 L611.5984 -1101.9453 L618.49 -1100.0703 L624.8464 -1097.2578 L630.3474 -1093.7422 L636.7039 -1090.9297 L643.5955 -1089.0547 L650.2957 -1088.1172 L653.3469 -1088 L662.1282 -1088" clip-path="url(#clipPath2)"/>
      <path d="M670.1282 -1088 L658.1282 -1093 L661.1282 -1088 L658.1282 -1083 Z" clip-path="url(#clipPath2)" stroke="none"/>
      <path fill="none" d="M2761.7456 -1007 L2807.3132 -1007" clip-path="url(#clipPath2)"/>
      <path d="M2815.3132 -1007 L2803.3132 -1012 L2806.3132 -1007 L2803.3132 -1002 Z" clip-path="url(#clipPath2)" stroke="none"/>
      <path fill="none" d="M2882.9758 -1007 L2904.9758 -1007" clip-path="url(#clipPath2)"/>
      <path d="M2912.9758 -1007 L2900.9758 -1012 L2903.9758 -1007 L2900.9758 -1002 Z" clip-path="url(#clipPath2)" stroke="none"/>
      <path fill="none" d="M3356.2737 -575.7368 L3367.075 -575.7368 L3369.5105 -575.9404 L3374.4639 -577.5687 L3379.4846 -580.8253 L3384.5222 -585.7101 L3389.5266 -592.2233 L3394.4475 -600.3647 L3399.2339 -610.1345 L3403.8362 -621.5325 L3406.0522 -627.8421 L3410.4214 -640.8684 L3413.1719 -648.7554 L3418.7495 -663.003 L3424.3406 -675.2151 L3429.8381 -685.392 L3435.1348 -693.5334 L3440.1235 -699.6395 L3444.6975 -703.7102 L3448.7493 -705.7456 L3450.5459 -706 L3457.5166 -706" clip-path="url(#clipPath2)"/>
      <path d="M3465.5166 -706 L3453.5166 -711 L3456.5166 -706 L3453.5166 -701 Z" clip-path="url(#clipPath2)" stroke="none"/>
      <path fill="none" d="M3660.0952 -706 L3670.0952 -706 L3671.8843 -705.6614 L3675.875 -702.9531 L3680.3267 -697.5364 L3685.1321 -689.4114 L3690.1843 -678.5781 L3695.376 -665.0364 L3700.6003 -648.7864 L3705.7502 -629.8281 L3708.2637 -619.3333 L3712.2417 -602 L3716.0994 -585.75 L3723.0913 -559.75 L3729.1194 -542.4167 L3733.0078 -535.1042 L3735.2988 -532.9375 L3736.354 -532.6667 L3756.9353 -532.6667" clip-path="url(#clipPath2)"/>
      <path d="M3764.9353 -532.6667 L3752.9353 -537.6667 L3755.9353 -532.6667 L3752.9353 -527.6667 Z" clip-path="url(#clipPath2)" stroke="none"/>
      <path fill="none" d="M3353.4812 -561.5263 L3367.075 -561.5263 L3368.8433 -561.3171 L3372.5291 -559.7239 L3376.2925 -556.7421 L3379.988 -552.5853 L3385.0867 -544.6145 L3389.2153 -535.2018 L3391.1865 -528.4816 L3391.8833 -525.0681 L3423.3635 -343.134 L3424.1687 -339.1891 L3426.447 -331.4227 L3429.4753 -324.0266 L3433.0859 -317.2477 L3437.1106 -311.3329 L3441.3816 -306.5291 L3445.731 -303.083 L3449.9905 -301.2417 L3452.0339 -301 L3459.0046 -301" clip-path="url(#clipPath2)"/>
      <path d="M3467.0046 -301 L3455.0046 -306 L3458.0046 -301 L3455.0046 -296 Z" clip-path="url(#clipPath2)" stroke="none"/>
      <path fill="none" d="M3658.6072 -301 L3668.6072 -301 L3670.6538 -301.2412 L3674.9353 -303.0786 L3679.3257 -306.5172 L3683.6543 -311.3108 L3687.7498 -317.2129 L3691.4414 -323.9773 L3694.5581 -331.3575 L3696.9292 -339.1073 L3697.7815 -343.0437 L3717.2051 -447.8175 L3720.3555 -464.1884 L3726.1365 -490.3818 L3731.2236 -507.8441 L3734.584 -515.2111 L3736.6074 -517.3938 L3737.554 -517.6667 L3759.0315 -517.6667" clip-path="url(#clipPath2)"/>
      <path d="M3767.0315 -517.6667 L3755.0315 -522.6667 L3758.0315 -517.6667 L3755.0315 -512.6667 Z" clip-path="url(#clipPath2)" stroke="none"/>
      <path fill="none" d="M3998.3701 -954.5 L4056.8774 -954.5" clip-path="url(#clipPath2)"/>
      <path d="M4064.8774 -954.5 L4052.8774 -959.5 L4055.8774 -954.5 L4052.8774 -949.5 Z" clip-path="url(#clipPath2)" stroke="none"/>
      <path fill="none" d="M4133.3145 -954.5 L4155.3145 -954.5" clip-path="url(#clipPath2)"/>
      <path d="M4163.3145 -954.5 L4151.3145 -959.5 L4154.3145 -954.5 L4151.3145 -949.5 Z" clip-path="url(#clipPath2)" stroke="none"/>
      <path fill="none" d="M4759.8154 -1000 L4771.9243 -1000 L4774.9795 -1000.2383 L4781.7109 -1002.1445 L4788.665 -1005.957 L4795.1152 -1011.6758 L4797.9243 -1015.25 L4800.7334 -1018.8242 L4807.1836 -1024.543 L4814.1377 -1028.3555 L4820.8691 -1030.2617 L4823.9243 -1030.5 L4830.895 -1030.5" clip-path="url(#clipPath2)"/>
      <path d="M4838.895 -1030.5 L4826.895 -1035.5 L4829.895 -1030.5 L4826.895 -1025.5 Z" clip-path="url(#clipPath2)" stroke="none"/>
      <path fill="none" d="M4838.8853 -1045.5 L4828.9243 -1045.5 L4821.1387 -1045.7188 L4795.9062 -1047.4688 L4779.9131 -1049 L4769.0317 -1049.8203 L4734.6172 -1051.1328 L4663.2104 -1052.2812 L4611.6289 -1052.5 L2888.3376 -1052.5 L2874.4685 -1052.2617 L2847.4915 -1050.3555 L2829.6208 -1047.6748 L2819.6396 -1045.292 L2811.7065 -1042.4326 L2806.2524 -1039.0967 L2804.5894 -1037.25 L2801.8389 -1033.6758 L2795.4824 -1027.957 L2788.5908 -1024.1445 L2781.8906 -1022.2383 L2778.8394 -1022 L2769.7456 -1022" clip-path="url(#clipPath2)"/>
      <path d="M2761.7456 -1022 L2773.7456 -1017 L2770.7456 -1022 L2773.7456 -1027 Z" clip-path="url(#clipPath2)" stroke="none"/>
      <path fill="none" d="M4759.8066 -985 L4830.8257 -985" clip-path="url(#clipPath2)"/>
      <path d="M4838.8257 -985 L4826.8257 -990 L4829.8257 -985 L4826.8257 -980 Z" clip-path="url(#clipPath2)" stroke="none"/>
      <path fill="none" d="M4883.7607 -985 L4929.3281 -985" clip-path="url(#clipPath2)"/>
      <path d="M4937.3281 -985 L4925.3281 -990 L4928.3281 -985 L4925.3281 -980 Z" clip-path="url(#clipPath2)" stroke="none"/>
      <path fill="none" d="M5214.5972 -992.5 L5226.6909 -992.5 L5228.1602 -992.3231 L5231.1528 -990.9751 L5235.5737 -986.807 L5240.769 -978.1923 L5244.3657 -967.4088 L5245.2925 -961.6555 L5330.7896 -111.3445 L5331.7163 -105.5913 L5335.3135 -94.8077 L5340.5088 -86.193 L5344.9297 -82.0249 L5347.9219 -80.677 L5349.3911 -80.5 L5356.3618 -80.5" clip-path="url(#clipPath2)"/>
      <path d="M5364.3618 -80.5 L5352.3618 -85.5 L5355.3618 -80.5 L5352.3618 -75.5 Z" clip-path="url(#clipPath2)" stroke="none"/>
      <path fill="none" d="M5364.3521 -65.5 L5354.3911 -65.5 L5326.5547 -64.625 L5270.1709 -62 L5247.8828 -61.1797 L5177.4941 -59.8672 L5031.5728 -58.7188 L4926.2148 -58.5 L3472.7417 -58.5 L3438.6465 -58.8206 L3370.3323 -61.3556 L3301.9702 -66.3482 L3233.7021 -73.718 L3165.6687 -83.3843 L3098.0115 -95.2666 L3030.8711 -109.2843 L2964.3894 -125.3568 L2898.707 -143.4035 L2833.9653 -163.3438 L2770.3054 -185.0972 L2707.8687 -208.5831 L2646.7961 -233.7209 L2587.229 -260.4301 L2529.3083 -288.6299 L2473.1753 -318.24 L2418.9712 -349.1796 L2366.8374 -381.3682 L2316.9146 -414.7252 L2269.3442 -449.1701 L2224.2673 -484.6222 L2181.8254 -521.001 L2142.1592 -558.2259 L2105.4102 -596.2163 L2071.7195 -634.8917 L2048.5432 -664.2992 L2034.1217 -684.0763 L2020.5442 -703.9793 L2007.8282 -723.9981 L1995.9916 -744.1227 L1985.0518 -764.343 L1975.0266 -784.6489 L1965.9336 -805.0303 L1957.7904 -825.4773 L1950.6147 -845.9796 L1944.4243 -866.5272 L1939.2366 -887.1102 L1935.0693 -907.7182 L1931.9401 -928.3414 L1930.7703 -938.6555 L1929.8438 -944.4088 L1926.2467 -955.1923 L1921.0514 -963.807 L1916.6306 -967.9751 L1913.6379 -969.3231 L1912.1689 -969.5 L1903.0752 -969.5" clip-path="url(#clipPath2)"/>
      <path d="M1895.0752 -969.5 L1907.0752 -964.5 L1904.0752 -969.5 L1907.0752 -974.5 Z" clip-path="url(#clipPath2)" stroke="none"/>
      <path fill="none" d="M1507.5182 -1030 L1519.6119 -1030 L1522.6632 -1030.1797 L1529.3634 -1031.6172 L1536.255 -1034.4922 L1542.6115 -1038.8047 L1548.1124 -1044.1953 L1554.4689 -1048.5078 L1561.3605 -1051.3828 L1568.0607 -1052.8203 L1571.1119 -1053 L1578.0826 -1053" clip-path="url(#clipPath2)"/>
      <path d="M1586.0826 -1053 L1574.0826 -1058 L1577.0826 -1053 L1574.0826 -1048 Z" clip-path="url(#clipPath2)" stroke="none"/>
      <path fill="none" d="M1586.0793 -1068 L1318.9952 -1068 L1305.0171 -1067.7617 L1277.8123 -1065.8555 L1259.7748 -1063.1748 L1249.6903 -1060.792 L1241.6643 -1057.9326 L1236.1309 -1054.5967 L1234.4344 -1052.75 L1231.6254 -1049.1758 L1225.1752 -1043.457 L1218.2211 -1039.6445 L1211.4896 -1037.7383 L1208.4344 -1037.5 L1199.3741 -1037.5" clip-path="url(#clipPath2)"/>
      <path d="M1191.3741 -1037.5 L1203.3741 -1032.5 L1200.3741 -1037.5 L1203.3741 -1042.5 Z" clip-path="url(#clipPath2)" stroke="none"/>
      <path fill="none" d="M1738.3524 -977 L1760.3231 -977" clip-path="url(#clipPath2)"/>
      <path d="M1768.3231 -977 L1756.3231 -982 L1759.3231 -977 L1756.3231 -972 Z" clip-path="url(#clipPath2)" stroke="none"/>
      <path fill="none" d="M1835.4968 -977 L1857.4968 -977" clip-path="url(#clipPath2)"/>
      <path d="M1865.4968 -977 L1853.4968 -982 L1856.4968 -977 L1853.4968 -972 Z" clip-path="url(#clipPath2)" stroke="none"/>
      <path fill="none" d="M2145.7888 -994.5 L2159.9175 -994.5 L2163.2766 -994.7734 L2172.4399 -996.9609 L2184.2578 -1001.3359 L2198.0037 -1007.8984 L2212.7415 -1016.1016 L2226.4871 -1022.6641 L2238.3049 -1027.0391 L2247.4683 -1029.2266 L2250.8274 -1029.5 L2257.7981 -1029.5" clip-path="url(#clipPath2)"/>
      <path d="M2265.7981 -1029.5 L2253.7981 -1034.5 L2256.7981 -1029.5 L2253.7981 -1024.5 Z" clip-path="url(#clipPath2)" stroke="none"/>
      <path fill="none" d="M2466.4487 -1029.5 L2532.4526 -1029.5" clip-path="url(#clipPath2)"/>
      <path d="M2540.4526 -1029.5 L2528.4526 -1034.5 L2531.4526 -1029.5 L2528.4526 -1024.5 Z" clip-path="url(#clipPath2)" stroke="none"/>
      <path fill="none" d="M3346.2097 -556.7895 L3367.075 -556.7895 L3368.5479 -556.613 L3371.5706 -555.2684 L3376.0837 -551.1106 L3381.4702 -542.5172 L3385.3062 -531.7604 L3386.3604 -526.0215 L3426.4553 -200.1267 L3427.6245 -193.7613 L3431.8794 -181.8303 L3436.2539 -174.3692 L3439.4985 -170.4783 L3442.8599 -167.6872 L3446.2122 -166.1958 L3447.8459 -166 L3454.8167 -166" clip-path="url(#clipPath2)"/>
      <path d="M3462.8167 -166 L3450.8167 -171 L3453.8167 -166 L3450.8167 -161 Z" clip-path="url(#clipPath2)" stroke="none"/>
      <path fill="none" d="M3662.7954 -166 L3672.7954 -166 L3674.4294 -166.1958 L3677.7839 -167.6869 L3681.1492 -170.4775 L3684.3997 -174.3677 L3688.7849 -181.8274 L3693.0574 -193.7563 L3694.2361 -200.1205 L3729.3235 -481.9042 L3730.3862 -487.6422 L3734.238 -498.397 L3739.637 -506.9888 L3744.1562 -511.1458 L3747.1809 -512.4902 L3748.6541 -512.6667 L3766.5974 -512.6667" clip-path="url(#clipPath2)"/>
      <path d="M3774.5974 -512.6667 L3762.5974 -517.6667 L3765.5974 -512.6667 L3762.5974 -507.6667 Z" clip-path="url(#clipPath2)" stroke="none"/>
      <path fill="none" d="M3356.7312 -574.1579 L3367.075 -574.1579 L3369.2651 -574.3275 L3374.0793 -575.6844 L3379.3633 -578.3983 L3384.9844 -582.4689 L3390.8113 -587.8966 L3396.7119 -594.6812 L3402.5547 -602.8226 L3408.2075 -612.3209 L3410.9214 -617.5789 L3416.3088 -627.7557 L3427.0872 -644.0386 L3434.7793 -652.689 L3439.533 -656.7596 L3443.8704 -659.4734 L3447.6909 -660.8304 L3449.376 -661 L3456.3467 -661" clip-path="url(#clipPath2)"/>
      <path d="M3464.3467 -661 L3452.3467 -666 L3455.3467 -661 L3452.3467 -656 Z" clip-path="url(#clipPath2)" stroke="none"/>
      <path fill="none" d="M3661.2654 -661 L3671.2654 -661 L3672.9429 -660.7461 L3676.7021 -658.7148 L3680.9172 -654.6523 L3685.4875 -648.5586 L3690.313 -640.4336 L3695.2932 -630.2773 L3700.3281 -618.0898 L3705.3174 -603.8711 L3707.7637 -596 L3711.6418 -583 L3715.4119 -570.8125 L3722.304 -551.3125 L3728.332 -538.3125 L3732.2859 -532.8281 L3734.6521 -531.2031 L3735.7539 -531 L3756.2825 -531" clip-path="url(#clipPath2)"/>
      <path d="M3764.2825 -531 L3752.2825 -536 L3755.2825 -531 L3752.2825 -526 Z" clip-path="url(#clipPath2)" stroke="none"/>
      <path fill="none" d="M3793.5017 -983.5 L3805.5481 -983.5 L3808.7683 -983.625 L3816.8188 -984.625 L3826.4114 -986.625 L3836.8193 -989.625 L3847.3845 -993.375 L3857.7922 -996.375 L3867.3848 -998.375 L3875.4355 -999.375 L3878.6555 -999.5 L3885.6262 -999.5" clip-path="url(#clipPath2)"/>
      <path d="M3893.6262 -999.5 L3881.6262 -1004.5 L3884.6262 -999.5 L3881.6262 -994.5 Z" clip-path="url(#clipPath2)" stroke="none"/>
      <path fill="none" d="M3893.6165 -1014.5 L3883.6555 -1014.5 L3875.2241 -1014.7188 L3844.8276 -1016.4688 L3824.3159 -1018 L3810.0896 -1018.8203 L3765.1318 -1020.1328 L3671.8938 -1021.2812 L3604.5593 -1021.5 L3287.1887 -1021.5 L3207.6414 -1021.2812 L3097.4805 -1020.1328 L3044.353 -1018.8203 L3027.5361 -1018 L2983.8152 -1015.375 L2960.2 -1014.5 L2951.0437 -1014.5" clip-path="url(#clipPath2)"/>
      <path d="M2943.0437 -1014.5 L2955.0437 -1009.5 L2952.0437 -1014.5 L2955.0437 -1019.5 Z" clip-path="url(#clipPath2)" stroke="none"/>
      <path fill="none" d="M5468.3491 -1000 L5480.3955 -1000 L5481.8647 -999.8231 L5484.8589 -998.4753 L5489.2837 -994.3076 L5494.4878 -985.6937 L5498.0957 -974.9113 L5499.0278 -969.1587 L5590.0132 -73.3413 L5590.9453 -67.5887 L5594.5532 -56.8063 L5599.7573 -48.1924 L5604.1826 -44.0247 L5607.1763 -42.6769 L5608.6455 -42.5 L5615.6162 -42.5" clip-path="url(#clipPath2)"/>
      <path d="M5623.6162 -42.5 L5611.6162 -47.5 L5614.6162 -42.5 L5611.6162 -37.5 Z" clip-path="url(#clipPath2)" stroke="none"/>
      <path fill="none" d="M5623.604 -27.5 L2888.6604 -27.5 L2844.7207 -27.8283 L2756.7312 -30.4237 L2668.7446 -35.5355 L2580.9407 -43.0811 L2493.4995 -52.9781 L2406.6008 -65.1439 L2320.4248 -79.496 L2235.1509 -95.952 L2150.959 -114.4294 L2068.0291 -134.8455 L1986.5411 -157.118 L1906.6749 -181.1643 L1828.6102 -206.9019 L1752.527 -234.2484 L1678.605 -263.1211 L1607.0243 -293.4377 L1537.9645 -325.1155 L1471.6056 -358.0722 L1408.1276 -392.2252 L1347.7101 -427.4919 L1290.533 -463.79 L1236.7764 -501.0369 L1186.6199 -539.15 L1151.4733 -568.2537 L1129.2611 -587.8839 L1108.05 -607.6843 L1087.8627 -627.6445 L1068.7214 -647.7543 L1050.649 -668.0034 L1033.6677 -688.3812 L1017.8 -708.8777 L1003.0684 -729.4825 L989.4954 -750.1853 L977.1036 -770.9758 L965.9152 -791.8435 L955.953 -812.7783 L947.2393 -833.7698 L939.7966 -854.8078 L933.6473 -875.8818 L928.8141 -896.9816 L925.3193 -918.0969 L924.0809 -928.6572 L923.1513 -934.41 L919.5488 -945.193 L914.349 -953.8073 L909.926 -957.9752 L906.9327 -959.3231 L905.4636 -959.5 L894.5319 -959.5" clip-path="url(#clipPath2)"/>
      <path d="M886.5319 -959.5 L898.5319 -954.5 L895.5319 -959.5 L898.5319 -964.5 Z" clip-path="url(#clipPath2)" stroke="none"/>
      <path fill="none" d="M41.5242 -1080.5 L63.4949 -1080.5" clip-path="url(#clipPath2)"/>
      <path d="M71.4949 -1080.5 L59.4949 -1085.5 L62.4949 -1080.5 L59.4949 -1075.5 Z" clip-path="url(#clipPath2)" stroke="none"/>
      <path fill="none" d="M262.4495 -1080.5 L284.4495 -1080.5" clip-path="url(#clipPath2)"/>
      <path d="M292.4495 -1080.5 L280.4495 -1085.5 L283.4495 -1080.5 L280.4495 -1075.5 Z" clip-path="url(#clipPath2)" stroke="none"/>
      <path fill="none" d="M1191.3672 -1022.5 L1237.4081 -1022.5" clip-path="url(#clipPath2)"/>
      <path d="M1245.4081 -1022.5 L1233.4081 -1027.5 L1236.4081 -1022.5 L1233.4081 -1017.5 Z" clip-path="url(#clipPath2)" stroke="none"/>
      <path fill="none" d="M1447.9639 -1022.5 L1469.9639 -1022.5" clip-path="url(#clipPath2)"/>
      <path d="M1477.9639 -1022.5 L1465.9639 -1027.5 L1468.9639 -1022.5 L1465.9639 -1017.5 Z" clip-path="url(#clipPath2)" stroke="none"/>
      <path fill="none" d="M1507.5182 -1015 L1578.8412 -1015" clip-path="url(#clipPath2)"/>
      <path d="M1586.8412 -1015 L1574.8412 -1020 L1577.8412 -1015 L1574.8412 -1010 Z" clip-path="url(#clipPath2)" stroke="none"/>
      <path fill="none" d="M1630.3842 -1015 L1640.3842 -1015 L1643.4354 -1014.7617 L1650.1356 -1012.8555 L1657.0272 -1009.043 L1663.3837 -1003.3242 L1668.8846 -996.1758 L1675.2411 -990.457 L1682.1327 -986.6445 L1688.8329 -984.7383 L1691.8842 -984.5 L1700.9779 -984.5" clip-path="url(#clipPath2)"/>
      <path d="M1708.9779 -984.5 L1696.9779 -989.5 L1699.9779 -984.5 L1696.9779 -979.5 Z" clip-path="url(#clipPath2)" stroke="none"/>
      <path fill="none" d="M2943.0437 -999.5 L2955.2 -999.5 L2956.6694 -999.3231 L2959.6643 -997.9753 L2964.0923 -993.808 L2969.3025 -985.1948 L2972.9182 -974.4131 L2973.8547 -968.6609 L3012.1453 -594.3391 L3013.082 -588.5869 L3016.6975 -577.8052 L3021.9077 -569.192 L3026.3357 -565.0247 L3029.3308 -563.6769 L3030.8 -563.5 L3037.7708 -563.5" clip-path="url(#clipPath2)"/>
      <path d="M3045.7708 -563.5 L3033.7708 -568.5 L3036.7708 -563.5 L3033.7708 -558.5 Z" clip-path="url(#clipPath2)" stroke="none"/>
      <path fill="none" d="M3112.9443 -563.5 L3134.9443 -563.5" clip-path="url(#clipPath2)"/>
      <path d="M3142.9443 -563.5 L3130.9443 -568.5 L3133.9443 -563.5 L3130.9443 -558.5 Z" clip-path="url(#clipPath2)" stroke="none"/>
      <path fill="none" d="M3355.6062 -564.6842 L3367.075 -564.6842 L3369.6562 -564.4671 L3374.6279 -562.7303 L3379.3528 -559.2566 L3383.8408 -554.0461 L3388.1013 -547.0987 L3392.1438 -538.4145 L3397.8203 -522.1316 L3401.3604 -509.1053 L3409.1145 -477.8421 L3411.8245 -467.3261 L3417.3103 -448.3293 L3422.7979 -432.0465 L3428.1829 -418.4774 L3433.3621 -407.6221 L3438.2314 -399.4807 L3442.687 -394.053 L3446.6252 -391.3392 L3448.3679 -391 L3455.3386 -391" clip-path="url(#clipPath2)"/>
      <path d="M3463.3386 -391 L3451.3386 -396 L3454.3386 -391 L3451.3386 -386 Z" clip-path="url(#clipPath2)" stroke="none"/>
      <path fill="none" d="M3662.2732 -391 L3672.2732 -391 L3674.0063 -391.2539 L3677.8679 -393.2852 L3682.1702 -397.3477 L3686.8091 -403.4414 L3691.6812 -411.5664 L3696.6826 -421.7227 L3701.7095 -433.9102 L3706.6582 -448.1289 L3709.0706 -456 L3712.8875 -469 L3716.5935 -481.1875 L3723.3435 -500.6875 L3729.2102 -513.6875 L3733.0305 -519.1719 L3735.3015 -520.7969 L3736.354 -521 L3756.9353 -521" clip-path="url(#clipPath2)"/>
      <path d="M3764.9353 -521 L3752.9353 -526 L3755.9353 -521 L3752.9353 -516 Z" clip-path="url(#clipPath2)" stroke="none"/>
      <path fill="none" d="M3351.886 -582.0526 L3367.075 -582.0526 L3368.7446 -582.251 L3372.2075 -583.7621 L3375.7231 -586.59 L3379.1572 -590.5322 L3383.8618 -598.0917 L3388.5955 -610.1802 L3390.0005 -616.6296 L3426.8896 -851.7233 L3428.2825 -858.1168 L3432.9751 -870.1002 L3437.6387 -877.594 L3441.043 -881.502 L3444.5281 -884.3054 L3447.9609 -885.8033 L3449.616 -886 L3456.5867 -886" clip-path="url(#clipPath2)"/>
      <path d="M3464.5867 -886 L3452.5867 -891 L3455.5867 -886 L3452.5867 -881 Z" clip-path="url(#clipPath2)" stroke="none"/>
      <path fill="none" d="M3661.0254 -886 L3671.0254 -886 L3672.6746 -885.8025 L3676.0623 -884.2982 L3679.4629 -881.4828 L3682.7498 -877.5582 L3687.188 -870.0325 L3691.52 -857.998 L3692.7205 -851.5774 L3728.0193 -572.0733 L3729.1611 -565.9665 L3733.2815 -554.5203 L3739.0447 -545.3762 L3743.8633 -540.952 L3747.0854 -539.5212 L3748.6541 -539.3333 L3762.9353 -539.3333" clip-path="url(#clipPath2)"/>
      <path d="M3770.9353 -539.3333 L3758.9353 -544.3333 L3761.9353 -539.3333 L3758.9353 -534.3333 Z" clip-path="url(#clipPath2)" stroke="none"/>
      <path fill="none" d="M3357.075 -572.5789 L3367.075 -572.5789 L3371.7839 -572.9182 L3382.6057 -575.632 L3394.3809 -581.0596 L3406.0078 -589.201 L3411.4214 -594.2895 L3416.6555 -599.3779 L3426.9856 -607.5193 L3436.5264 -612.947 L3444.551 -615.6608 L3447.7681 -616 L3454.7388 -616" clip-path="url(#clipPath2)"/>
      <path d="M3462.7388 -616 L3450.7388 -621 L3453.7388 -616 L3450.7388 -611 Z" clip-path="url(#clipPath2)" stroke="none"/>
      <path fill="none" d="M3662.8733 -616 L3672.8733 -616 L3674.3984 -615.8307 L3677.8457 -614.4766 L3681.7471 -611.7682 L3686.012 -607.7057 L3692.8916 -599.0729 L3702.488 -582.8229 L3707.2637 -572.6667 L3711.0417 -564 L3714.7244 -555.875 L3721.5164 -542.875 L3727.5444 -534.2083 L3731.5642 -530.5521 L3734.0051 -529.4688 L3735.1541 -529.3333 L3755.8728 -529.3333" clip-path="url(#clipPath2)"/>
      <path d="M3763.8728 -529.3333 L3751.8728 -534.3333 L3754.8728 -529.3333 L3751.8728 -524.3333 Z" clip-path="url(#clipPath2)" stroke="none"/>
      <path fill="none" d="M4192.9048 -947 L4204.9985 -947 L4208.0537 -946.7656 L4214.7852 -944.8906 L4221.7393 -941.1406 L4228.1895 -935.5156 L4233.8076 -928.4844 L4240.2578 -922.8594 L4247.2119 -919.1094 L4253.9434 -917.2344 L4256.9985 -917 L4263.9692 -917" clip-path="url(#clipPath2)"/>
      <path d="M4271.9692 -917 L4259.9692 -922 L4262.9692 -917 L4259.9692 -912 Z" clip-path="url(#clipPath2)" stroke="none"/>
      <path fill="none" d="M4469.6079 -917 L4491.6079 -917" clip-path="url(#clipPath2)"/>
      <path d="M4499.6079 -917 L4487.6079 -922 L4490.6079 -917 L4487.6079 -912 Z" clip-path="url(#clipPath2)" stroke="none"/>
      <path fill="none" d="M317.6844 -1073 L329.4656 -1073 L336.7351 -1072.5312 L357.8367 -1068.7812 L370.2156 -1065.5 L377.5627 -1063.7422 L397.3459 -1060.9297 L421.4291 -1059.0547 L446.8298 -1058.1172 L459.0922 -1058 L466.0629 -1058" clip-path="url(#clipPath2)"/>
      <path d="M474.0629 -1058 L462.0629 -1063 L465.0629 -1058 L462.0629 -1053 Z" clip-path="url(#clipPath2)" stroke="none"/>
      <path fill="none" d="M513.7204 -1058 L523.7204 -1058 L536.8763 -1058.1172 L563.7125 -1059.0547 L588.5672 -1060.9297 L608.2234 -1063.7422 L615.0969 -1065.5 L626.3821 -1068.7812 L646.2336 -1072.5312 L653.3469 -1073 L662.1282 -1073" clip-path="url(#clipPath2)"/>
      <path d="M670.1282 -1073 L658.1282 -1078 L661.1282 -1073 L658.1282 -1068 Z" clip-path="url(#clipPath2)" stroke="none"/>
      <path fill="none" d="M1895.0752 -984.5 L2011.7385 -984.5" clip-path="url(#clipPath2)"/>
      <path d="M2019.7385 -984.5 L2007.7385 -989.5 L2010.7385 -984.5 L2007.7385 -979.5 Z" clip-path="url(#clipPath2)" stroke="none"/>
      <path fill="none" d="M2087.3933 -984.5 L2109.3933 -984.5" clip-path="url(#clipPath2)"/>
      <path d="M2117.3933 -984.5 L2105.3933 -989.5 L2108.3933 -984.5 L2105.3933 -979.5 Z" clip-path="url(#clipPath2)" stroke="none"/>
      <path fill="none" d="M2149.9175 -984.5 L2262.3882 -984.5" clip-path="url(#clipPath2)"/>
      <path d="M2270.3882 -984.5 L2258.3882 -989.5 L2261.3882 -984.5 L2258.3882 -979.5 Z" clip-path="url(#clipPath2)" stroke="none"/>
      <path fill="none" d="M2461.8589 -984.5 L2471.8589 -984.5 L2474.9102 -984.7344 L2481.6104 -986.6094 L2488.502 -990.3594 L2494.8584 -995.9844 L2500.3594 -1003.0156 L2506.7158 -1008.6406 L2513.6074 -1012.3906 L2520.3076 -1014.2656 L2523.3589 -1014.5 L2532.4526 -1014.5" clip-path="url(#clipPath2)"/>
      <path d="M2540.4526 -1014.5 L2528.4526 -1019.5 L2531.4526 -1014.5 L2528.4526 -1009.5 Z" clip-path="url(#clipPath2)" stroke="none"/>
      <path fill="none" d="M3354.7173 -578.8947 L3367.075 -578.8947 L3368.9468 -579.1137 L3372.8923 -580.7815 L3376.9722 -583.9028 L3381.0251 -588.254 L3386.7017 -596.5977 L3391.4106 -606.4509 L3393.7432 -613.4855 L3394.6072 -617.0587 L3398.2419 -633.8126 L3406.0105 -666.7961 L3414.1687 -698.207 L3422.3853 -726.9966 L3430.3281 -752.1166 L3437.6658 -772.5183 L3444.0671 -787.1534 L3448.0542 -793.7147 L3450.2468 -795.7406 L3451.188 -796 L3458.1587 -796" clip-path="url(#clipPath2)"/>
      <path d="M3466.1587 -796 L3454.1587 -801 L3457.1587 -796 L3454.1587 -791 Z" clip-path="url(#clipPath2)" stroke="none"/>
      <path fill="none" d="M3659.4534 -796 L3669.4534 -796 L3671.2593 -795.7856 L3675.009 -794.153 L3678.8213 -791.0973 L3682.5498 -786.8377 L3687.6663 -778.6696 L3691.7729 -769.0238 L3693.7063 -762.1373 L3694.377 -758.6392 L3724.2837 -572.5313 L3724.9395 -569.111 L3726.8298 -562.3773 L3730.8455 -552.9457 L3735.8484 -544.9589 L3739.4941 -540.7938 L3743.2217 -537.806 L3746.8882 -536.2096 L3748.6541 -536 L3759.0244 -536" clip-path="url(#clipPath2)"/>
      <path d="M3767.0244 -536 L3755.0244 -541 L3758.0244 -536 L3755.0244 -531 Z" clip-path="url(#clipPath2)" stroke="none"/>
      <path fill="none" d="M3357.075 -571 L3455.636 -571" clip-path="url(#clipPath2)"/>
      <path d="M3463.636 -571 L3451.636 -576 L3454.636 -571 L3451.636 -566 Z" clip-path="url(#clipPath2)" stroke="none"/>
      <path fill="none" d="M3661.9792 -571 L3671.9792 -571 L3675.3245 -570.6614 L3683.3547 -567.9531 L3692.5312 -562.5364 L3702.0852 -554.4114 L3706.7637 -549.3333 L3711.2576 -544.2552 L3719.6226 -536.1302 L3727.1577 -530.7136 L3733.8628 -528.0052 L3736.9041 -527.6667 L3755.6541 -527.6667" clip-path="url(#clipPath2)"/>
      <path d="M3763.6541 -527.6667 L3751.6541 -532.6667 L3754.6541 -527.6667 L3751.6541 -522.6667 Z" clip-path="url(#clipPath2)" stroke="none"/>
      <path fill="none" d="M3354.7173 -563.1053 L3367.075 -563.1053 L3368.9453 -562.886 L3372.8787 -561.2157 L3376.9363 -558.0898 L3380.9585 -553.7322 L3386.5754 -545.3762 L3391.2139 -535.5085 L3393.4963 -528.4635 L3394.335 -524.8851 L3401.5039 -491.5188 L3417.0496 -428.9789 L3428.5225 -389.8696 L3435.4902 -369.4743 L3441.5447 -354.8438 L3445.2966 -348.2846 L3447.3479 -346.2593 L3448.2239 -346 L3455.1946 -346" clip-path="url(#clipPath2)"/>
      <path d="M3463.1946 -346 L3451.1946 -351 L3454.1946 -346 L3451.1946 -341 Z" clip-path="url(#clipPath2)" stroke="none"/>
      <path fill="none" d="M3662.4172 -346 L3672.4172 -346 L3674.1389 -346.3385 L3677.9895 -349.0469 L3682.2976 -354.4635 L3686.9604 -362.5885 L3691.8748 -373.4219 L3696.938 -386.9635 L3702.0469 -403.2135 L3707.0984 -422.1719 L3709.5706 -432.6667 L3713.4873 -450 L3717.281 -466.25 L3724.1311 -492.25 L3729.9978 -509.5833 L3733.7524 -516.8958 L3735.9482 -519.0625 L3736.9541 -519.3333 L3757.8103 -519.3333" clip-path="url(#clipPath2)"/>
      <path d="M3765.8103 -519.3333 L3753.8103 -524.3333 L3756.8103 -519.3333 L3753.8103 -514.3333 Z" clip-path="url(#clipPath2)" stroke="none"/>
      <path fill="none" d="M3793.5017 -968.5 L3805.5481 -968.5 L3812.5481 -968.2969 L3831.4929 -966.6719 L3852.4766 -963.8281 L3871.4216 -962.2031 L3878.4216 -962 L3885.3923 -962" clip-path="url(#clipPath2)"/>
      <path d="M3893.3923 -962 L3881.3923 -967 L3884.3923 -962 L3881.3923 -957 Z" clip-path="url(#clipPath2)" stroke="none"/>
      <path fill="none" d="M3938.7378 -962 L3960.7378 -962" clip-path="url(#clipPath2)"/>
      <path d="M3968.7378 -962 L3956.7378 -967 L3959.7378 -962 L3956.7378 -957 Z" clip-path="url(#clipPath2)" stroke="none"/>
      <path fill="none" d="M888.5795 -1125.5 L928.1885 -1125.5" clip-path="url(#clipPath2)"/>
      <path d="M936.1885 -1125.5 L924.1885 -1130.5 L927.1885 -1125.5 L924.1885 -1120.5 Z" clip-path="url(#clipPath2)" stroke="none"/>
      <path fill="none" d="M1134.3003 -1125.5 L1156.3303 -1125.5" clip-path="url(#clipPath2)"/>
      <path d="M1164.3303 -1125.5 L1152.3303 -1130.5 L1155.3303 -1125.5 L1152.3303 -1120.5 Z" clip-path="url(#clipPath2)" stroke="none"/>
      <path fill="none" d="M3796.2981 -526.8333 L3806.2981 -526.8333 L3807.7681 -526.6564 L3810.7668 -525.3091 L3815.2068 -521.1431 L3820.4419 -512.5323 L3824.0884 -501.754 L3825.0415 -496.0035 L3858.988 -173.3299 L3859.9412 -167.5794 L3863.5879 -156.801 L3868.8228 -148.1903 L3873.2629 -144.0242 L3876.2617 -142.6769 L3877.7314 -142.5 L3884.7021 -142.5" clip-path="url(#clipPath2)"/>
      <path d="M3892.7021 -142.5 L3880.7021 -147.5 L3883.7021 -142.5 L3880.7021 -137.5 Z" clip-path="url(#clipPath2)" stroke="none"/>
      <path fill="none" d="M3892.6924 -127.5 L3882.7314 -127.5 L3874.3291 -127.2812 L3844.1636 -125.5312 L3823.8538 -124 L3809.7773 -123.1797 L3765.2915 -121.8672 L3673.0305 -120.7188 L3606.4014 -120.5 L3580.4001 -120.7476 L3531.8394 -122.8137 L3498.3201 -125.8505 L3477.3025 -128.6368 L3457.3154 -132.0658 L3438.3303 -136.1661 L3420.3196 -140.9663 L3403.2549 -146.4949 L3387.1082 -152.7805 L3371.8516 -159.8517 L3357.4565 -167.7371 L3343.8955 -176.4652 L3331.1404 -186.0646 L3319.1626 -196.5638 L3307.9346 -207.9915 L3297.428 -220.3763 L3287.6147 -233.7466 L3278.467 -248.131 L3269.9565 -263.5582 L3262.0552 -280.0566 L3254.7351 -297.655 L3247.9683 -316.3817 L3241.7261 -336.2655 L3235.9812 -357.3349 L3228.2339 -391.2244 L3219.3813 -440.8266 L3212.0115 -495.6853 L3208.8123 -525.1573 L3207.8823 -530.9102 L3204.2788 -541.6931 L3199.0784 -550.3074 L3194.655 -554.4752 L3191.6616 -555.8231 L3190.1926 -556 L3181.0364 -556" clip-path="url(#clipPath2)"/>
      <path d="M3173.0364 -556 L3185.0364 -551 L3182.0364 -556 L3185.0364 -561 Z" clip-path="url(#clipPath2)" stroke="none"/>
      <path fill="none" d="M3357.075 -569.4211 L3367.075 -569.4211 L3371.7715 -569.0818 L3382.4922 -566.368 L3394.0654 -560.9404 L3405.3899 -552.799 L3410.6145 -547.7105 L3415.7617 -542.6221 L3426.5273 -534.4807 L3437.1384 -529.053 L3446.6543 -526.3392 L3450.708 -526 L3457.6787 -526" clip-path="url(#clipPath2)"/>
      <path d="M3465.6787 -526 L3453.6787 -531 L3456.6787 -526 L3453.6787 -521 Z" clip-path="url(#clipPath2)" stroke="none"/>
      <path fill="none" d="M3659.9333 -526 L3755.6541 -526" clip-path="url(#clipPath2)"/>
      <path d="M3763.6541 -526 L3751.6541 -531 L3754.6541 -526 L3751.6541 -521 Z" clip-path="url(#clipPath2)" stroke="none"/>
      <path fill="none" d="M3351.886 -559.9474 L3367.075 -559.9474 L3368.7437 -559.7488 L3372.1985 -558.2366 L3375.6995 -555.4064 L3379.1133 -551.4609 L3383.7786 -543.8954 L3388.4495 -531.7974 L3389.821 -525.3428 L3425.7322 -288.4651 L3427.019 -282.4096 L3431.4011 -271.0595 L3437.3613 -261.9921 L3442.2651 -257.605 L3445.5066 -256.1862 L3447.072 -256 L3454.0427 -256" clip-path="url(#clipPath2)"/>
      <path d="M3462.0427 -256 L3450.0427 -261 L3453.0427 -256 L3450.0427 -251 Z" clip-path="url(#clipPath2)" stroke="none"/>
      <path fill="none" d="M3663.5693 -256 L3673.5693 -256 L3675.136 -256.1861 L3678.3867 -257.6034 L3683.3193 -261.986 L3689.3391 -271.0442 L3693.7959 -282.3828 L3695.1223 -288.4321 L3725.6804 -481.4306 L3727.0945 -487.8786 L3731.845 -499.9644 L3736.5601 -507.5222 L3739.9998 -511.4636 L3743.5193 -514.291 L3746.9841 -515.8016 L3748.6541 -516 L3760.6853 -516" clip-path="url(#clipPath2)"/>
      <path d="M3768.6853 -516 L3756.6853 -521 L3759.6853 -516 L3756.6853 -511 Z" clip-path="url(#clipPath2)" stroke="none"/>
      <path fill="none" d="M3353.4812 -580.4737 L3367.075 -580.4737 L3368.8445 -580.6826 L3372.5398 -582.2742 L3376.321 -585.2529 L3380.0417 -589.4052 L3385.1882 -597.3676 L3389.3735 -606.7704 L3391.385 -613.4835 L3392.1023 -616.8934 L3425.4463 -802.9384 L3426.196 -806.5021 L3428.2983 -813.5178 L3432.6721 -823.3445 L3438.0505 -831.6658 L3441.939 -836.0054 L3445.8909 -839.1183 L3449.7527 -840.7816 L3451.6021 -841 L3458.5728 -841" clip-path="url(#clipPath2)"/>
      <path d="M3466.5728 -841 L3454.5728 -846 L3457.5728 -841 L3454.5728 -836 Z" clip-path="url(#clipPath2)" stroke="none"/>
      <path fill="none" d="M3659.0393 -841 L3669.0393 -841 L3670.8804 -840.7803 L3674.6802 -839.1071 L3678.5156 -835.9755 L3682.2419 -831.61 L3687.3098 -823.239 L3691.3167 -813.3535 L3693.157 -806.2958 L3693.7734 -802.7109 L3726.2661 -572.3237 L3727.5708 -565.8593 L3732.1167 -553.7429 L3736.7036 -546.166 L3740.0764 -542.2145 L3743.5481 -539.3801 L3746.9875 -537.8655 L3748.6541 -537.6667 L3760.6853 -537.6667" clip-path="url(#clipPath2)"/>
      <path d="M3768.6853 -537.6667 L3756.6853 -542.6667 L3759.6853 -537.6667 L3756.6853 -532.6667 Z" clip-path="url(#clipPath2)" stroke="none"/>
      <path fill="none" d="M4529.3032 -924.5 L4541.4121 -924.5 L4544.4673 -924.6758 L4551.1987 -926.082 L4558.1528 -928.8945 L4564.603 -933.1133 L4570.2212 -938.3867 L4576.6714 -942.6055 L4583.6255 -945.418 L4590.3569 -946.8242 L4593.4121 -947 L4600.3828 -947" clip-path="url(#clipPath2)"/>
      <path d="M4608.3828 -947 L4596.3828 -952 L4599.3828 -947 L4596.3828 -942 Z" clip-path="url(#clipPath2)" stroke="none"/>
      <path fill="none" d="M4608.373 -962 L4598.4121 -962 L4579.3931 -962.0625 L4549.4609 -962.25 L4506.2217 -962.4375 L4443.4062 -962.5 L4338.7026 -962.3571 L4209.9985 -962.0427 L4200.9048 -962.0168" clip-path="url(#clipPath2)"/>
      <path d="M4192.9048 -961.994 L4204.9189 -957.0282 L4201.9048 -962.0197 L4204.8906 -967.0281 Z" clip-path="url(#clipPath2)" stroke="none"/>
      <path fill="none" d="M4964.1904 -1000 L5102.207 -1000" clip-path="url(#clipPath2)"/>
      <path d="M5110.207 -1000 L5098.207 -1005 L5101.207 -1000 L5098.207 -995 Z" clip-path="url(#clipPath2)" stroke="none"/>
      <path fill="none" d="M5155.2109 -1000 L5177.2109 -1000" clip-path="url(#clipPath2)"/>
      <path d="M5185.2109 -1000 L5173.2109 -1005 L5176.2109 -1000 L5173.2109 -995 Z" clip-path="url(#clipPath2)" stroke="none"/>
      <path fill="none" d="M888.5675 -1080.5 L927.7029 -1080.5" clip-path="url(#clipPath2)"/>
      <path d="M935.7029 -1080.5 L923.7029 -1085.5 L926.7029 -1080.5 L923.7029 -1075.5 Z" clip-path="url(#clipPath2)" stroke="none"/>
      <path fill="none" d="M1134.7864 -1080.5 L1156.7864 -1080.5" clip-path="url(#clipPath2)"/>
      <path d="M1164.7864 -1080.5 L1152.7864 -1085.5 L1155.7864 -1080.5 L1152.7864 -1075.5 Z" clip-path="url(#clipPath2)" stroke="none"/>
      <path fill="none" d="M890.4636 -969.5 L1007.633 -969.5" clip-path="url(#clipPath2)"/>
      <path d="M1015.633 -969.5 L1003.633 -974.5 L1006.633 -969.5 L1003.633 -964.5 Z" clip-path="url(#clipPath2)" stroke="none"/>
      <path fill="none" d="M1054.8718 -969.5 L1700.9779 -969.5" clip-path="url(#clipPath2)"/>
      <path d="M1708.9779 -969.5 L1696.9779 -974.5 L1699.9779 -969.5 L1696.9779 -964.5 Z" clip-path="url(#clipPath2)" stroke="none"/>
      <path fill="none" d="M886.5221 -979.5 L900.4636 -979.5 L903.8009 -979.8945 L912.7896 -983.0508 L924.2582 -989.3633 L937.4801 -998.832 L951.5629 -1010.668 L964.7849 -1020.1367 L976.2534 -1026.4492 L985.2421 -1029.6055 L988.5795 -1030 L995.5502 -1030" clip-path="url(#clipPath2)"/>
      <path d="M1003.5502 -1030 L991.5502 -1035 L994.5502 -1030 L991.5502 -1025 Z" clip-path="url(#clipPath2)" stroke="none"/>
      <path fill="none" d="M1066.9558 -1030 L1154.2543 -1030" clip-path="url(#clipPath2)"/>
      <path d="M1162.2543 -1030 L1150.2543 -1035 L1153.2543 -1030 L1150.2543 -1025 Z" clip-path="url(#clipPath2)" stroke="none"/>
      <path fill="none" d="M3356.2737 -566.2632 L3367.075 -566.2632 L3369.5081 -566.0596 L3374.4412 -564.4313 L3379.4214 -561.1747 L3384.3987 -556.2899 L3389.3225 -549.7767 L3394.1423 -541.6353 L3398.8079 -531.8655 L3403.2686 -520.4675 L3405.4065 -514.1579 L3409.6145 -501.1316 L3412.2795 -493.2445 L3417.7761 -478.997 L3423.3948 -466.7849 L3429.0151 -456.608 L3434.5173 -448.4666 L3439.782 -442.3605 L3444.6887 -438.2898 L3449.1179 -436.2544 L3451.116 -436 L3458.0867 -436" clip-path="url(#clipPath2)"/>
      <path d="M3466.0867 -436 L3454.0867 -441 L3457.0867 -436 L3454.0867 -431 Z" clip-path="url(#clipPath2)" stroke="none"/>
      <path fill="none" d="M3659.5254 -436 L3669.5254 -436 L3671.5137 -436.1693 L3675.8662 -437.5234 L3680.6194 -440.2318 L3685.6538 -444.2943 L3690.8491 -449.7109 L3696.0857 -456.4818 L3701.2437 -464.6068 L3706.2029 -474.0859 L3708.5706 -479.3333 L3713.094 -489.4896 L3721.4065 -505.7396 L3728.74 -516.5729 L3733.5974 -521.1432 L3736.5295 -522.4974 L3737.9041 -522.6667 L3756.2844 -522.6667" clip-path="url(#clipPath2)"/>
      <path d="M3764.2844 -522.6667 L3752.2844 -527.6667 L3755.2844 -522.6667 L3752.2844 -517.6667 Z" clip-path="url(#clipPath2)" stroke="none"/>
      <path fill="none" d="M3356.7312 -567.8421 L3367.075 -567.8421 L3369.262 -567.6725 L3374.051 -566.3156 L3379.2844 -563.6017 L3384.8298 -559.5311 L3390.5559 -554.1034 L3396.3306 -547.3188 L3402.022 -539.1774 L3407.4983 -529.6791 L3410.1145 -524.4211 L3415.2766 -514.2443 L3425.4915 -497.9613 L3432.6997 -489.3111 L3437.1191 -485.2403 L3441.1235 -482.5265 L3444.6226 -481.1696 L3446.1541 -481 L3453.1248 -481" clip-path="url(#clipPath2)"/>
      <path d="M3461.1248 -481 L3449.1248 -486 L3452.1248 -481 L3449.1248 -476 Z" clip-path="url(#clipPath2)" stroke="none"/>
      <path fill="none" d="M3664.4873 -481 L3674.4873 -481 L3677.6609 -481.3385 L3685.3403 -484.0469 L3694.1902 -489.4635 L3703.4841 -497.5885 L3708.0706 -502.6667 L3718.7471 -515.4587 L3720.7161 -517.5387 L3725.6621 -520.8666 L3732.6306 -523.0853 L3742.4346 -524.1946 L3748.6541 -524.3333 L3755.8728 -524.3333" clip-path="url(#clipPath2)"/>
      <path d="M3763.8728 -524.3333 L3751.8728 -529.3333 L3754.8728 -524.3333 L3751.8728 -519.3333 Z" clip-path="url(#clipPath2)" stroke="none"/>
      <path fill="none" d="M3998.3853 -969.5 L4010.4939 -969.5 L4013.5452 -969.7383 L4020.2454 -971.6445 L4027.137 -975.457 L4033.4934 -981.1758 L4038.9944 -988.3242 L4045.3508 -994.043 L4052.2424 -997.8555 L4058.9426 -999.7617 L4061.9939 -1000 L4068.9646 -1000" clip-path="url(#clipPath2)"/>
      <path d="M4076.9646 -1000 L4064.9646 -1005 L4067.9646 -1000 L4064.9646 -995 Z" clip-path="url(#clipPath2)" stroke="none"/>
      <path fill="none" d="M4121.23 -1000 L4723.999 -1000" clip-path="url(#clipPath2)"/>
      <path d="M4731.999 -1000 L4719.999 -1005 L4722.999 -1000 L4719.999 -995 Z" clip-path="url(#clipPath2)" stroke="none"/>
      <path fill="none" d="M5214.5972 -1007.5 L5356.8945 -1007.5" clip-path="url(#clipPath2)"/>
      <path d="M5364.8945 -1007.5 L5352.8945 -1012.5 L5355.8945 -1007.5 L5352.8945 -1002.5 Z" clip-path="url(#clipPath2)" stroke="none"/>
      <path fill="none" d="M5409.2876 -1007.5 L5431.2876 -1007.5" clip-path="url(#clipPath2)"/>
      <path d="M5439.2876 -1007.5 L5427.2876 -1012.5 L5430.2876 -1007.5 L5427.2876 -1002.5 Z" clip-path="url(#clipPath2)" stroke="none"/>
      <path fill="none" d="M3173.0364 -571 L3242.2048 -571" clip-path="url(#clipPath2)"/>
      <path d="M3250.2048 -571 L3238.2048 -576 L3241.2048 -571 L3238.2048 -566 Z" clip-path="url(#clipPath2)" stroke="none"/>
      <path fill="none" d="M3295.0188 -571 L3317.0188 -571" clip-path="url(#clipPath2)"/>
      <path d="M3325.0188 -571 L3313.0188 -576 L3316.0188 -571 L3313.0188 -566 Z" clip-path="url(#clipPath2)" stroke="none"/>
      <path fill="none" d="M3349.7029 -558.3684 L3367.075 -558.3684 L3368.6453 -558.1808 L3371.8804 -556.7517 L3376.7393 -552.3328 L3382.5854 -543.1995 L3386.8098 -531.7669 L3388.0071 -525.6674 L3425.791 -246.88 L3427.1047 -240.1875 L3431.7397 -227.6436 L3436.4426 -219.7992 L3439.9099 -215.7084 L3443.4856 -212.7738 L3447.0352 -211.2059 L3448.7581 -211 L3455.7288 -211" clip-path="url(#clipPath2)"/>
      <path d="M3463.7288 -211 L3451.7288 -216 L3454.7288 -211 L3451.7288 -206 Z" clip-path="url(#clipPath2)" stroke="none"/>
      <path fill="none" d="M3661.8833 -211 L3671.8833 -211 L3673.6069 -211.2058 L3677.1619 -212.773 L3680.7476 -215.7062 L3684.2288 -219.7951 L3688.9585 -227.6358 L3693.6362 -240.1739 L3694.9727 -246.8632 L3727.6104 -481.6476 L3728.8284 -487.7443 L3733.0918 -499.1715 L3738.9692 -508.3005 L3743.843 -512.7174 L3747.083 -514.1458 L3748.6541 -514.3333 L3762.9353 -514.3333" clip-path="url(#clipPath2)"/>
      <path d="M3770.9353 -514.3333 L3758.9353 -519.3333 L3761.9353 -514.3333 L3758.9353 -509.3333 Z" clip-path="url(#clipPath2)" stroke="none"/>
      <path fill="none" d="M3355.6062 -577.3158 L3367.075 -577.3158 L3369.6584 -577.5329 L3374.646 -579.2697 L3379.4033 -582.7434 L3383.9397 -587.9539 L3388.2646 -594.9013 L3392.3879 -603.5855 L3398.2156 -619.8684 L3401.8767 -632.8947 L3409.9214 -664.1579 L3412.7402 -674.674 L3418.4861 -693.6707 L3424.2815 -709.9536 L3430.011 -723.5226 L3435.5596 -734.3779 L3440.8125 -742.5193 L3445.6548 -747.947 L3449.9709 -750.6608 L3451.896 -751 L3458.8667 -751" clip-path="url(#clipPath2)"/>
      <path d="M3466.8667 -751 L3454.8667 -756 L3457.8667 -751 L3454.8667 -746 Z" clip-path="url(#clipPath2)" stroke="none"/>
      <path fill="none" d="M3658.7454 -751 L3668.7454 -751 L3670.6248 -750.7787 L3674.5601 -749.0927 L3678.5994 -745.9375 L3682.5852 -741.539 L3688.1189 -733.1046 L3692.6458 -723.1444 L3694.842 -716.0334 L3695.6345 -712.4213 L3715.7463 -605.5685 L3719.0105 -588.8728 L3725.0134 -562.1596 L3730.3154 -544.3508 L3733.8318 -536.8377 L3735.957 -534.6116 L3736.9541 -534.3333 L3757.8103 -534.3333" clip-path="url(#clipPath2)"/>
      <path d="M3765.8103 -534.3333 L3753.8103 -539.3333 L3756.8103 -534.3333 L3753.8103 -529.3333 Z" clip-path="url(#clipPath2)" stroke="none"/>
      <path fill="none" d="M3346.2097 -585.2105 L3367.075 -585.2105 L3368.5486 -585.387 L3371.5767 -586.7309 L3376.1069 -590.8865 L3381.5281 -599.4755 L3385.408 -610.2269 L3386.4856 -615.9629 L3409.3767 -795.9814 L3420.8223 -885.9907 L3422.3899 -896.8903 L3426.3467 -916.5798 L3431.3984 -933.4565 L3437.5454 -947.5205 L3444.7876 -958.7717 L3453.125 -967.21 L3460.0969 -971.6929 L3465.0872 -973.8025 L3473.0857 -975.6484 L3478.7603 -976 L3532.2224 -976" clip-path="url(#clipPath2)"/>
      <path d="M3540.2224 -976 L3528.2224 -981 L3531.2224 -976 L3528.2224 -971 Z" clip-path="url(#clipPath2)" stroke="none"/>
      <path fill="none" d="M3585.3887 -976 L3756.4041 -976" clip-path="url(#clipPath2)"/>
      <path d="M3764.4041 -976 L3752.4041 -981 L3755.4041 -976 L3752.4041 -971 Z" clip-path="url(#clipPath2)" stroke="none"/>
      <path fill="none" d="M4529.2944 -909.5 L4601.1406 -909.5" clip-path="url(#clipPath2)"/>
      <path d="M4609.1406 -909.5 L4597.1406 -914.5 L4600.1406 -909.5 L4597.1406 -904.5 Z" clip-path="url(#clipPath2)" stroke="none"/>
      <path fill="none" d="M4653.3804 -909.5 L4663.3804 -909.5 L4664.8716 -909.6475 L4668.0488 -910.8271 L4671.4102 -913.1865 L4674.8647 -916.7256 L4680.0234 -924.2461 L4686.3799 -938.4023 L4691.8809 -956.0977 L4698.2373 -970.2539 L4703.3955 -977.7744 L4706.8501 -981.3135 L4710.2114 -983.6729 L4713.3887 -984.8525 L4714.8804 -985 L4724.0029 -985" clip-path="url(#clipPath2)"/>
      <path d="M4732.0029 -985 L4720.0029 -990 L4723.0029 -985 L4720.0029 -980 Z" clip-path="url(#clipPath2)" stroke="none"/>
    </g>
  </g>
</svg>
